The Black Crowes Freak N Roll Into the Fog 2006 BluRay720p DTS x264-LoNeWoLf

Encoded for HD-Space.org by Tequila-Bob a.k.a. bobnjeff a.k.a.LoNeWoLf

Source - NTSC BluRay Disc.

 
http://www.imdb.com/title/tt0496245/

Details
Country:USA 
Language:English 
Release Date:21 March 2006 (USA) 
Filming Locations:The Fillmore, San Francisco, California, USA

Shot at San Francisco's Fillmore Auditorium in August 2005, the band presents their greatest hits in hi-def. The concert features an impresssive mix of material from their 6 studio albums. A bonus behind-the-scenes short film is included.
Taking their cue from the Faces and early-'70s Rolling Stones, the Black Crowes put the raunch back into rock & roll at a time when the genre was nearly blues-less, achieving big success in the 1990s before embarking on a long hiatus in 2001. The band finally regrouped in early 2005, with the Robinson brothers joined by former bandmates Eddie Harsch, Marc Ford, Sven Pipien, and Steve Gorman for a series of live dates that boasted long, energetic two-set performances. FREAK 'N' ROLL INTO THE FOG captures the Black Crowes during their one-night-stand at the San Francisco Fillmore in August 2005, delivering jammed-out renditions of hits like "She Talks to Angels," "Jealous Again," "Remedy," and "Hard to Handle."

[img]http://torrent-stats.info/d8ac/e16ee478.png[/img]

Format : Matroska 
File size : 6.57 GiB 
Duration : 2h 15mn 
Overall bit rate : 6 922 Kbps 
Encoded date : UTC 2010-11-22 23:17:14 
Writing application : mkvmerge v4.4.0 ('Die Wiederkehr') built on Oct 31 2010 21:52:48 
Writing library : libebml v1.0.0 + libmatroska v1.0.0 

Video 
ID : 1 
Format : AVC 
Format/Info : Advanced Video Codec 
Format profile : High@L4.1 
Format settings, CABAC : Yes 
Format settings, ReFrames : 7 frames 
Muxing mode : Container profile=Unknown@4.1 
Codec ID : V_MPEG4/ISO/AVC 
Duration : 2h 15mn 
Bit rate : 5 702 Kbps 
Width : 1 280 pixels 
Height : 752 pixels 
Display aspect ratio : 16:9 
Frame rate : 29.970 fps 
Color space : YUV 
Chroma subsampling : 4:2:0 
Bit depth : 8 bits 
Scan type : Progressive 
Bits/(Pixel*Frame) : 0.198 
Stream size : 5.30 GiB (81%) 
Writing library : x264 core 98 r1649 c54c47d 
Encoding settings : cabac=1 / ref=8 / deblock=1:0:0 / analyse=0x3:0x133 / me=umh / subme=7 / psy=1 / psy_rd=1.00:0.15 / mixed_ref=1 / me_range=24 / chroma_me=1 / trellis=1 / 8x8dct=1 / cqm=0 / deadzone=21,11 / fast_pskip=1 / chroma_qp_offset=-3 / threads=6 / sliced_threads=0 / nr=0 / decimate=0 / interlaced=0 / constrained_intra=0 / bframes=5 / b_pyramid=1 / b_adapt=1 / b_bias=0 / direct=1 / weightb=1 / weightp=2 / keyint=250 / keyint_min=25 / scenecut=40 / intra_refresh=0 / rc_lookahead=50 / rc=2pass / mbtree=1 / bitrate=5702 / ratetol=1.0 / qcomp=0.60 / qpmin=10 / qpmax=51 / qpstep=4 / cplxblur=20.0 / qblur=0.5 / ip_ratio=1.40 / aq=1:1.50 
Language : English 

Audio #1 
ID : 2 
Format : DTS 
Format/Info : Digital Theater Systems 
Codec ID : A_DTS 
Duration : 2h 15mn 
Bit rate mode : Constant 
Bit rate : 755 Kbps 
Channel(s) : 6 channels 
Channel positions : Front: L C R, Side: L R, LFE 
Sampling rate : 48.0 KHz 
Bit depth : 16 bits 
Video delay : 10ms 
Stream size : 734 MiB (11%) 
Title : 3/2+1 
Language : English 

Audio #2 
ID : 3 
Format : AC-3 
Format/Info : Audio Coding 3 
Mode extension : CM (complete main) 
Codec ID : A_AC3 
Duration : 2h 15mn 
Bit rate mode : Constant 
Bit rate : 448 Kbps 
Channel(s) : 6 channels 
Channel positions : Front: L C R, Side: L R, LFE 
Sampling rate : 48.0 KHz 
Bit depth : 16 bits 
Stream size : 436 MiB (6%) 
Title : 3/2+1 
Language : English 

Menu Chapters 19

See the full size 1280x752 PNG files at the link below

 
http://s1015.photobucket.com/albums/af279/tequila-bob/The%20Black%20Crowes%20Freak%20N%20Roll%20Into%20the%20Fog/

